Coordinates
version=1
nRows=11
nColumns=63
inDegrees=yes

Units are S.I. units (second, meters, Newtons, ...)
If the header above contains a line with 'inDegrees', this indicates whether rotational values are in degrees (yes) or radians (no).

endheader
time	pelvis_tilt	pelvis_list	pelvis_rotation	pelvis_tx	pelvis_ty	pelvis_tz	hip_flexion_r	hip_adduction_r	hip_rotation_r	knee_angle_r	knee_angle_r_beta	ankle_angle_r	subtalar_angle_r	mtp_angle_r	hip_flexion_l	hip_adduction_l	hip_rotation_l	knee_angle_l	knee_angle_l_beta	ankle_angle_l	subtalar_angle_l	mtp_angle_l	L5_S1_Flex_Ext	L5_S1_Lat_Bending	L5_S1_axial_rotation	L4_L5_Flex_Ext	L4_L5_Lat_Bending	L4_L5_axial_rotation	L3_L4_Flex_Ext	L3_L4_Lat_Bending	L3_L4_axial_rotation	L2_L3_Flex_Ext	L2_L3_Lat_Bending	L2_L3_axial_rotation	L1_L2_Flex_Ext	L1_L2_Lat_Bending	L1_L2_axial_rotation	L1_T12_Flex_Ext	L1_T12_Lat_Bending	L1_T12_axial_rotation	Abs_r3	Abs_r2	Abs_r1	Abs_t1	Abs_t2	neck_flexion	neck_bending	neck_rotation	arm_flex_r	arm_add_r	arm_rot_r	elbow_flex_r	pro_sup_r	wrist_flex_r	wrist_dev_r	arm_flex_l	arm_add_l	arm_rot_l	elbow_flex_l	pro_sup_l	wrist_flex_l	wrist_dev_l
     15.70800000	    -59.41184637	     -0.73149521	     -1.12942426	     -0.26188181	      1.09832761	     -0.02284274	    101.45727705	     -4.32755748	     -1.14021647	     95.30203997	      1.66333438	     21.87050899	      4.21001392	      0.00000000	    111.05576733	     -7.26496427	     -2.73767115	     69.01034486	      1.20445774	     15.30900699	     -1.97770558	      0.00000000	     -0.09173010	      0.18911234	     -0.04579839	     -0.17035196	      0.25151941	     -0.04866079	     -0.15070338	      0.45980774	     -0.04866079	     -0.10483833	      0.45980774	     -0.04007359	     -0.08518057	      0.38563788	     -0.03721119	     -0.05241458	      0.29293501	     -0.03434879	     -0.65521891	      2.13927660	     -0.25471689	      0.00000000	      0.00000000	     -0.00000000	      0.00000000	      0.00000000	     64.79846819	    -17.03460907	     22.99657181	     48.19148192	     49.92740335	      0.00000000	      5.00000014	     59.56567818	    -19.90865742	     11.70994891	     54.95516528	     51.33585228	      0.00000000	      5.00000014
     15.71700000	    -59.40486103	     -0.64779158	     -1.28372581	     -0.26157459	      1.09850662	     -0.02287142	    102.23891518	     -4.35829193	     -1.00703806	     96.85965708	      1.69051993	     22.49300852	      4.59962918	      0.00000000	    109.86718748	     -7.14423213	     -2.39895375	     67.21183207	      1.17306777	     14.72878935	     -1.47617879	      0.00000000	     -0.09116375	      0.20306551	     -0.04317536	     -0.16930020	      0.27007712	     -0.04587382	     -0.14977293	      0.49373347	     -0.04587382	     -0.10419105	      0.49373347	     -0.03777844	     -0.08465466	      0.41409118	     -0.03507998	     -0.05209097	      0.31454847	     -0.03238152	     -0.65117356	      2.29711761	     -0.24012839	      0.00000000	      0.00000000	     -0.00000000	      0.00000000	      0.00000000	     64.96840790	    -16.80337339	     23.24144596	     47.99968427	     49.95699672	      0.00000000	      5.00000014	     59.38172633	    -20.17229564	     11.57827096	     54.96554347	     51.33072814	      0.00000000	      5.00000014
     15.72500000	    -59.39279422	     -0.65991399	     -1.61310783	     -0.26124704	      1.09868386	     -0.02271913	    103.03127716	     -4.19418588	     -1.00780628	     98.32884162	      1.71616204	     22.97874307	      4.70223605	      0.00000000	    108.72190200	     -7.18215315	     -1.91494451	     65.51977416	      1.14353578	     14.08689836	     -1.15682432	      0.00000000	     -0.09212986	      0.22797707	     -0.00145274	     -0.17109437	      0.30320951	     -0.00154354	     -0.15136016	      0.55430345	     -0.00154354	     -0.10529522	      0.55430345	     -0.00127115	     -0.08555179	      0.46489084	     -0.00118035	     -0.05264300	      0.35313648	     -0.00108956	     -0.65807441	      2.57892223	     -0.00807973	      0.00000000	      0.00000000	     -0.00000000	      0.00000000	      0.00000000	     65.09596058	    -16.63257258	     23.40973642	     47.90856260	     49.97597092	      0.00000000	      5.00000014	     59.22168424	    -20.28288652	     11.48332422	     54.90628622	     51.32423574	      0.00000000	      5.00000014
     15.73300000	    -59.37870447	     -0.68628147	     -1.86642502	     -0.26091325	      1.09874448	     -0.02270098	    103.87231494	     -4.13542756	     -1.04393602	     99.80794976	      1.74197734	     23.49618324	      4.83249327	      0.00000000	    107.58680462	     -7.19598134	     -1.53954791	     63.89675385	      1.11520874	     13.43638254	     -0.81904380	      0.00000000	     -0.09287873	      0.25463033	      0.02618829	     -0.17248509	      0.33865833	      0.02782506	     -0.15259046	      0.61910818	      0.02782506	     -0.10615110	      0.61910818	      0.02291476	     -0.08624719	      0.51924216	      0.02127799	     -0.05307091	      0.39442238	      0.01964122	     -0.66342346	      2.88042918	      0.14565143	      0.00000000	      0.00000000	     -0.00000000	      0.00000000	      0.00000000	     65.25437066	    -16.47864903	     23.63130988	     47.79368451	     50.00098183	      0.00000000	      5.00000014	     59.05972928	    -20.40361214	     11.37453502	     54.84612495	     51.31605910	      0.00000000	      5.00000014
     15.74200000	    -59.35185349	     -0.72599673	     -1.80823915	     -0.26052479	      1.09864451	     -0.02305038	    104.77037631	     -4.39553644	     -1.02468185	    101.38647521	      1.76952781	     24.19353926	      5.27216284	      0.00000000	    106.44765192	     -6.97829123	     -1.36004051	     62.33903753	      1.08802146	     12.79464393	     -0.33503052	      0.00000000	     -0.09321253	      0.28079734	     -0.01359957	     -0.17310500	      0.37346046	     -0.01444955	     -0.15313887	      0.68273065	     -0.01444955	     -0.10653260	      0.68273065	     -0.01189963	     -0.08655716	      0.57260193	     -0.01104965	     -0.05326164	      0.43495508	     -0.01019968	     -0.66580780	      3.17643566	     -0.07563675	      0.00000000	      0.00000000	     -0.00000000	      0.00000000	      0.00000000	     65.48839540	    -16.31501197	     24.16941913	     47.56977839	     50.06291020	      0.00000000	      5.00000014	     58.88890263	    -20.56967349	     11.19087044	     54.76355813	     51.30170323	      0.00000000	      5.00000014
     15.75000000	    -59.34954626	     -0.85257452	     -2.18751399	     -0.26015877	      1.09860607	     -0.02277907	    105.65964613	     -4.21152372	     -1.24232120	    102.73937742	      1.79314041	     24.72243101	      5.38344662	      0.00000000	    105.40423863	     -7.20032295	     -1.03878884	     60.90966960	      1.06307428	     12.19962507	     -0.06690629	      0.00000000	     -0.09400725	      0.31680090	      0.04138311	     -0.17458086	      0.42134519	      0.04396956	     -0.15444451	      0.77026970	      0.04396956	     -0.10744088	      0.77026970	      0.03621022	     -0.08729513	      0.64602039	      0.03362378	     -0.05371574	      0.49072459	      0.03103733	     -0.67148437	      3.58371510	      0.23016045	      0.00000000	      0.00000000	     -0.00000000	      0.00000000	      0.00000000	     65.64470668	    -16.23674438	     24.37366938	     47.48770747	     50.08639043	      0.00000000	      5.00000014	     58.73896340	    -20.63594248	     11.13148499	     54.69675988	     51.29697329	      0.00000000	      5.00000014
     15.75800000	    -59.32852658	     -1.02848910	     -2.16907898	     -0.25980537	      1.09840400	     -0.02312998	    106.57651326	     -4.48437762	     -1.37859421	    104.18079602	      1.81829791	     25.62913760	      6.20645693	      0.00000000	    104.35732660	     -7.07067549	     -0.83312320	     59.50723642	      1.03859720	     11.68207405	      0.53992293	      0.00000000	     -0.09524721	      0.35881102	      0.00825678	     -0.17688360	      0.47721866	      0.00877283	     -0.15648164	      0.87241312	      0.00877283	     -0.10885804	      0.87241312	      0.00722468	     -0.08844656	      0.73168744	      0.00670863	     -0.05442426	      0.55579827	      0.00619258	     -0.68034131	      4.05894205	      0.04592173	      0.00000000	      0.00000000	     -0.00000000	      0.00000000	      0.00000000	     66.04643785	    -16.23175345	     25.38771738	     47.19896179	     50.20624477	      0.00000000	      5.00000014	     58.56268362	    -20.74264295	     10.92420627	     54.61971995	     51.27867407	      0.00000000	      5.00000014
     15.76700000	    -59.28886023	     -1.19574461	     -2.30433230	     -0.25928411	      1.09816994	     -0.02319195	    107.48915427	     -4.57619008	     -1.61323403	    105.49795678	      1.84128670	     26.17102378	      6.35821712	      0.00000000	    103.31494201	     -7.12237916	     -0.67337828	     58.19692442	      1.01572795	     11.19008966	      0.89148395	      0.00000000	     -0.09454069	      0.39779426	      0.01778931	     -0.17557152	      0.52906636	      0.01890114	     -0.15532090	      0.96719695	      0.01890114	     -0.10805056	      0.96719695	      0.01556565	     -0.08779049	      0.81118204	      0.01445381	     -0.05402055	      0.61618330	      0.01334198	     -0.67529470	      4.49992817	      0.09893881	      0.00000000	      0.00000000	     -0.00000000	      0.00000000	      0.00000000	     66.19175069	    -16.18665779	     25.75866459	     47.06378733	     50.25061417	      0.00000000	      5.00000014	     58.40695157	    -20.75805120	     10.88144369	     54.41034318	     51.27440040	      0.00000000	      5.00000014
     15.77500000	    -59.26346556	     -1.36401956	     -2.43563657	     -0.25885203	      1.09796245	     -0.02323397	    108.42870941	     -4.71494250	     -1.89684180	    106.72765275	      1.86274894	     26.70906216	      6.72020381	      0.00000000	    102.30551565	     -7.18682003	     -0.54124655	     56.93327148	      0.99367304	     10.75921358	      1.32190600	      0.00000000	     -0.09524941	      0.43633020	      0.02428286	     -0.17688767	      0.58031916	      0.02580054	     -0.15648525	      1.06089325	      0.02580054	     -0.10886055	      1.06089325	      0.02124750	     -0.08844860	      0.88976454	      0.01972982	     -0.05442551	      0.67587548	      0.01821214	     -0.68035699	      4.93585448	      0.13505398	      0.00000000	      0.00000000	     -0.00000000	      0.00000000	      0.00000000	     66.46335043	    -16.19741059	     26.38350841	     46.87052993	     50.32625115	      0.00000000	      5.00000014	     58.25695649	    -20.83489325	     10.88152278	     54.29081582	     51.27310937	      0.00000000	      5.00000014
     15.78300000	    -59.23061625	     -1.53722026	     -2.75503629	     -0.25828508	      1.09773919	     -0.02292321	    109.34839397	     -4.63876011	     -2.24564582	    107.81145486	      1.88166486	     27.02000627	      6.82432340	      0.00000000	    101.33628009	     -7.47349991	     -0.43923894	     55.81864077	      0.97421907	     10.34672424	      1.50108776	      0.00000000	     -0.09544502	      0.47405387	      0.07549346	     -0.17725094	      0.63049164	      0.08021180	     -0.15680662	      1.15261457	      0.08021180	     -0.10908411	      1.15261457	      0.06605677	     -0.08863024	      0.96669065	      0.06133843	     -0.05453728	      0.73430944	      0.05662009	     -0.68175421	      5.36259216	      0.41987195	      0.00000000	      0.00000000	     -0.00000000	      0.00000000	      0.00000000	     66.54671351	    -16.17716167	     26.56308882	     46.79479733	     50.34766648	      0.00000000	      5.00000014	     58.10073228	    -20.84100343	     10.92940854	     54.19768848	     51.27682430	      0.00000000	      5.00000014
     15.79200000	    -59.17011768	     -1.66799314	     -2.78541226	     -0.25772071	      1.09741670	     -0.02311512	    110.30005159	     -4.88755599	     -2.44802388	    108.91218923	      1.90087630	     27.20506107	      7.23798515	      0.00000000	    100.32186541	     -7.45672336	     -0.37784859	     54.70618013	      0.95480296	      9.98391104	      1.82060765	      0.00000000	     -0.09590358	      0.50788840	      0.07239866	     -0.17810254	      0.67549157	      0.07692358	     -0.15756000	      1.23487986	      0.07692358	     -0.10960820	      1.23487986	      0.06334883	     -0.08905607	      1.03568603	      0.05882391	     -0.05479931	      0.78671913	      0.05429900	     -0.68502970	      5.74533517	      0.40265963	      0.00000000	      0.00000000	     -0.00000000	      0.00000000	      0.00000000	     66.76411977	    -16.25819159	     27.29462235	     46.64137728	     50.43633093	      0.00000000	      5.00000014	     57.97717317	    -20.88311081	     11.06330287	     54.01488946	     51.28625457	      0.00000000	      5.00000014
